<svg width="14" height="15" viewBox="0 0 14 15" fill="none" xmlns="http://www.w3.org/2000/svg">
<path d="M12.25 1.78845H4.375C4.14315 1.78914 3.92099 1.88155 3.75705 2.0455C3.5931 2.20944 3.50069 2.4316 3.5 2.66345V8.78845C3.50069 9.0203 3.5931 9.24246 3.75705 9.40641C3.92099 9.57035 4.14315 9.66276 4.375 9.66345H12.25C12.4819 9.66276 12.704 9.57035 12.868 9.40641C13.0319 9.24246 13.1243 9.0203 13.125 8.78845V2.66345C13.1243 2.4316 13.0319 2.20944 12.868 2.0455C12.704 1.88155 12.4819 1.78914 12.25 1.78845ZM12.25 8.78845H4.375V2.66345H12.25V8.78845Z" fill="#263057"/>
<path d="M7.875 11.4135H1.75V7.03845H2.625V6.16345H1.75C1.51815 6.16414 1.29599 6.25655 1.13205 6.4205C0.968102 6.58444 0.875692 6.8066 0.875 7.03845V11.4135C0.875692 11.6453 0.968102 11.8675 1.13205 12.0314C1.29599 12.1954 1.51815 12.2878 1.75 12.2885H7.875C8.10685 12.2878 8.32901 12.1954 8.49295 12.0314C8.6569 11.8675 8.74931 11.6453 8.75 11.4135V10.5385H7.875V11.4135Z" fill="#263057"/>
</svg>
